<?xml version="1.0" standalone="no"?><!DOCTYPE svg PUBLIC "-//W3C//DTD SVG 1.1//EN" "http://www.w3.org/Graphics/SVG/1.1/DTD/svg11.dtd"><svg t="1531363409297" class="icon" style="" viewBox="0 0 1024 1024" version="1.1" xmlns="http://www.w3.org/2000/svg" p-id="1060" xmlns:xlink="http://www.w3.org/1999/xlink" width="200" height="200"><defs><style type="text/css"></style></defs><path d="M323.8 812.3m-82.2 0a82.2 82.2 0 1 0 164.4 0 82.2 82.2 0 1 0-164.4 0Z" fill="#303030" p-id="1061"></path><path d="M323.8 910.5c-54.1 0-98.1-44-98.1-98.1s44-98.1 98.1-98.1c54.1 0 98.1 44 98.1 98.1s-44 98.1-98.1 98.1z m0-164.4c-36.5 0-66.3 29.7-66.3 66.3 0 36.5 29.7 66.3 66.3 66.3s66.3-29.7 66.3-66.3c0-36.6-29.8-66.3-66.3-66.3z" fill="#232323" p-id="1062"></path><path d="M700.4 812.3m-82.2 0a82.2 82.2 0 1 0 164.4 0 82.2 82.2 0 1 0-164.4 0Z" fill="#303030" p-id="1063"></path><path d="M700.4 910.5c-54.1 0-98.1-44-98.1-98.1s44-98.1 98.1-98.1c54.1 0 98.1 44 98.1 98.1s-44 98.1-98.1 98.1z m0-164.4c-36.5 0-66.3 29.7-66.3 66.3 0 36.5 29.7 66.3 66.3 66.3 36.5 0 66.3-29.7 66.3-66.3-0.1-36.6-29.8-66.3-66.3-66.3z" fill="#232323" p-id="1064"></path><path d="M323.8 812.3m-28.2 0a28.2 28.2 0 1 0 56.4 0 28.2 28.2 0 1 0-56.4 0Z" fill="#232323" p-id="1065"></path><path d="M699.5 812.3m-28.2 0a28.2 28.2 0 1 0 56.4 0 28.2 28.2 0 1 0-56.4 0Z" fill="#232323" p-id="1066"></path><path d="M871.2 587.7h-70v-70c0-101.6-85.7-184-191.5-184H414.2c-105.7 0-191.5 82.4-191.5 184v70h-70c-39.9 0-72.2 31-72.2 69.3v92.4c0 24.6 20.8 44.5 46.3 44.5h770.1c25.6 0 46.3-19.9 46.3-44.5V657c0.2-38.3-32.1-69.3-72-69.3z" fill="#FF7B7B" p-id="1067"></path><path d="M897.1 809.9H126.9c-34.3 0-62.3-27.1-62.3-60.5V657c0-47 39.5-85.3 88.1-85.3h54v-54.1c0-110.2 93-199.9 207.4-199.9h195.6c114.4 0 207.4 89.7 207.4 199.9v54.1h54c48.6 0 88.1 38.3 88.1 85.3v92.4c0.1 33.4-27.8 60.5-62.1 60.5zM152.8 603.6c-31 0-56.2 24-56.2 53.4v92.4c0 15.8 13.6 28.6 30.4 28.6h770.1c16.8 0 30.4-12.8 30.4-28.6V657c0-29.5-25.2-53.4-56.2-53.4h-70c-8.8 0-15.9-7.1-15.9-15.9v-70c0-92.7-78.7-168-175.5-168H414.2c-96.8 0-175.5 75.4-175.5 168v70c0 8.8-7.1 15.9-15.9 15.9h-70z" fill="#232323" p-id="1068"></path><path d="M497 625.7h28.7v112.2H497z" fill="#EA3934" p-id="1069"></path><path d="M409.1 402.8h56.5v160.6H313.8v-65.3c0-52.6 42.7-95.3 95.3-95.3z" fill="#EDF4FC" p-id="1070"></path><path d="M465.6 579.3H313.8c-8.8 0-15.9-7.1-15.9-15.9v-8.8c0-92.4 75.2-167.7 167.7-167.7 8.8 0 15.9 7.1 15.9 15.9v160.6c0 8.8-7.1 15.9-15.9 15.9zM330 547.5h119.7V419.7c-65.2 7.6-116.3 61.5-119.7 127.8z" fill="#232323" p-id="1071"></path><path d="M614.9 402.8h-56.5v160.6h151.7v-65.3c0.1-52.6-42.6-95.3-95.2-95.3z" fill="#EDF4FC" p-id="1072"></path><path d="M710.2 579.3H558.4c-8.8 0-15.9-7.1-15.9-15.9V402.8c0-8.8 7.1-15.9 15.9-15.9 92.4 0 167.7 75.2 167.7 167.7v8.8c0 8.8-7.1 15.9-15.9 15.9z m-135.8-31.8H694c-3.4-66.3-54.6-120.1-119.7-127.8v127.8z" fill="#232323" p-id="1073"></path><path d="M574.4 129.5c-25.7 0-48.4 12.6-62.4 31.8-14-19.3-36.7-31.8-62.4-31.8-42.6 0-77.1 34.5-77.1 77.1s34.5 77.1 77.1 77.1c12.2 0 23.8-2.8 34-7.9V333H539v-58c10.6 5.5 22.6 8.6 35.4 8.6 42.6 0 77.1-34.5 77.1-77.1s-34.5-77-77.1-77zM449 231.2c-13.9 0-25.2-11.3-25.2-25.2 0-13.9 11.3-25.2 25.2-25.2 13.9 0 25.2 11.3 25.2 25.2 0 14-11.3 25.2-25.2 25.2z m125.5 0c-13.9 0-25.2-11.3-25.2-25.2 0-13.9 11.3-25.2 25.2-25.2 13.9 0 25.2 11.3 25.2 25.2 0 14-11.3 25.2-25.2 25.2z" fill="#E5E5E5" p-id="1074"></path><path d="M539 348.9h-55.4c-8.8 0-15.9-7.1-15.9-15.9v-35.2c-5.9 1.2-11.9 1.7-18.1 1.7-51.3 0-93-41.7-93-93s41.7-93 93-93c23.2 0 45.4 8.8 62.4 24.1 17-15.3 39.2-24.1 62.4-24.1 51.3 0 93 41.7 93 93s-41.7 93-93 93c-6.5 0-13.1-0.7-19.4-2.1V333c0 8.8-7.2 15.9-16 15.9zM499.6 317h23.5v-42c0-5.6 2.9-10.7 7.7-13.6 4.8-2.9 10.7-3.1 15.6-0.5 8.7 4.5 18.1 6.8 28 6.8 33.7 0 61.1-27.4 61.1-61.2s-27.4-61.2-61.1-61.2c-19.5 0-38 9.4-49.5 25.3-3 4.1-7.8 6.6-12.9 6.6-5.1 0-9.9-2.4-12.9-6.6-11.5-15.8-30-25.3-49.5-25.3-33.7 0-61.2 27.4-61.2 61.2s27.4 61.2 61.2 61.2c9.5 0 18.5-2.1 27-6.3 4.9-2.4 10.8-2.2 15.5 0.8 4.7 2.9 7.5 8 7.5 13.5V317z m74.9-69.8c-22.7 0-41.1-18.4-41.1-41.1s18.4-41.1 41.1-41.1 41.1 18.4 41.1 41.1-18.4 41.1-41.1 41.1z m0-50.4c-5.1 0-9.2 4.1-9.2 9.2s4.1 9.2 9.2 9.2 9.2-4.1 9.2-9.2-4.1-9.2-9.2-9.2zM449 247.2c-22.7 0-41.1-18.4-41.1-41.1S426.4 165 449 165c22.7 0 41.1 18.4 41.1 41.1s-18.4 41.1-41.1 41.1z m0-50.4c-5.1 0-9.2 4.1-9.2 9.2s4.1 9.2 9.2 9.2 9.2-4.1 9.2-9.2-4.1-9.2-9.2-9.2z" fill="#232323" p-id="1075"></path><path d="M397 637.9h-41.3c-8.8 0-15.9-7.1-15.9-15.9s7.1-15.9 15.9-15.9H397c8.8 0 15.9 7.1 15.9 15.9s-7.1 15.9-15.9 15.9zM667 637.9h-41.3c-8.8 0-15.9-7.1-15.9-15.9s7.1-15.9 15.9-15.9H667c8.8 0 15.9 7.1 15.9 15.9s-7.1 15.9-15.9 15.9z" fill="#232323" p-id="1076"></path><path d="M175.8 588.7s-61.1-12-85.1 31.4c-24 43.4-5.9 57.1-5.9 57.1s50.4 6.3 63.4-11.4 30-40.8 30-57.2c0.1-16.5-2.4-19.9-2.4-19.9z" fill="#FFF2D4" p-id="1077"></path><path d="M854.1 581.5s-12 61.1 31.4 85.1 57.1 5.9 57.1 5.9 6.3-50.4-11.4-63.4-40.8-30-57.2-30-19.9 2.4-19.9 2.4z" fill="#FFF2D4" p-id="1078"></path><path d="M102.9 695h-22v-31.9h22c31.3 0 56.7-25.5 56.7-56.7v-19.9h31.9v19.9c0 48.8-39.7 88.6-88.6 88.6z" fill="#232323" p-id="1079"></path><path d="M945.5 695h-22c-48.9 0-88.6-39.8-88.6-88.6v-19.9h31.9v19.9c0 31.3 25.5 56.7 56.7 56.7h22V695z" fill="#232323" p-id="1080"></path><path d="M897.1 816.1H126.9c-34.3 0-62.3-27.1-62.3-60.5V657c0-47 39.5-85.3 88.1-85.3h54v-54.1c0-110.2 93-199.9 207.4-199.9h195.6c114.4 0 207.4 89.7 207.4 199.9v54.1h54c48.6 0 88.1 38.3 88.1 85.3v98.7c0.1 33.3-27.8 60.4-62.1 60.4zM152.8 603.6c-31 0-56.2 24-56.2 53.4v98.7c0 15.8 13.6 28.6 30.4 28.6h770.1c16.8 0 30.4-12.8 30.4-28.6V657c0-29.5-25.2-53.4-56.2-53.4h-70c-8.8 0-15.9-7.1-15.9-15.9v-70c0-92.7-78.7-168-175.5-168H414.2c-96.8 0-175.5 75.4-175.5 168v70c0 8.8-7.1 15.9-15.9 15.9h-70z" fill="#232323" p-id="1081"></path></svg>