<?xml version="1.0" standalone="no"?><!DOCTYPE svg PUBLIC "-//W3C//DTD SVG 1.1//EN" "http://www.w3.org/Graphics/SVG/1.1/DTD/svg11.dtd"><svg t="1534327990134" class="icon" style="" viewBox="0 0 1024 1024" version="1.1" xmlns="http://www.w3.org/2000/svg" p-id="9092" xmlns:xlink="http://www.w3.org/1999/xlink" width="200" height="200"><defs><style type="text/css"></style></defs><path d="M480 64C215.04 64 0 279.04 0 544 0 808.96 215.04 1024 480 1024S960 808.96 960 544C960 279.04 744.96 64 480 64zM736 576l-256 0C462.08 576 448 561.92 448 544l0-256C448 270.08 462.08 256 480 256S512 270.08 512 288L512 512l224 0C753.92 512 768 526.08 768 544 768 561.92 753.92 576 736 576z" p-id="9093" fill="#0EC2AB"></path></svg>