<?xml version="1.0" standalone="no"?><!DOCTYPE svg PUBLIC "-//W3C//DTD SVG 1.1//EN" "http://www.w3.org/Graphics/SVG/1.1/DTD/svg11.dtd"><svg t="1531363732976" class="icon" style="" viewBox="0 0 1024 1024" version="1.1" xmlns="http://www.w3.org/2000/svg" p-id="22708" xmlns:xlink="http://www.w3.org/1999/xlink" width="200" height="200"><defs><style type="text/css"></style></defs><path d="M965.40416 342.76608c-19.50976-52.24704-47.744-100.41472-83.92064-143.16288-18.26688-21.5872-50.57536-24.27392-72.15872-6.0096-21.58464 18.26688-24.2752 50.5728-6.00832 72.15872C861.4336 334.42816 893.44 421.88032 893.44 512c0 210.32576-171.11424 381.44-381.44 381.44-210.32704 0-381.44-171.11424-381.44-381.44 0-210.32704 171.11296-381.44 381.44-381.44 60.48896 0 118.30784 13.72672 171.85152 40.8 25.2288 12.75648 56.03328 2.64704 68.7936-22.58816 12.76032-25.23392 2.64576-56.03456-22.58816-68.7936C662.05312 45.5936 588.68992 28.16 512 28.16c-65.29536 0-128.66432 12.8-188.34688 38.04416-57.62176 24.37248-109.36064 59.2512-153.7792 103.66976-44.41856 44.41856-79.29856 96.15744-103.66976 153.77792C40.96 383.3344 28.16 446.70464 28.16 512c0 65.29536 12.8 128.6656 38.04416 188.34688 24.37248 57.62176 59.2512 109.36064 103.66976 153.7792s96.15744 79.29856 153.7792 103.66976C383.33568 983.04 446.70464 995.84 512 995.84c65.29536 0 128.6656-12.8 188.34816-38.04416 57.62176-24.3712 109.36064-59.2512 153.77792-103.66976 44.41856-44.41856 79.29856-96.15744 103.66976-153.7792C983.04 640.6656 995.84 577.29536 995.84 512 995.84 453.79328 985.6 396.85504 965.40416 342.76608z" p-id="22709" fill="#e70984"></path><path d="M488.19072 509.40032c8.89344 6.3232 16.7872 14.05056 25.18656 21.07648 7.09376 5.9328 13.78176 12.576 21.61536 17.30048 3.77088 2.27456 10.8544 2.73792 14.5024 0.64512 5.0752-2.90944 1.5168-8.80768-0.50816-13.00992-18.9504-39.32288-41.36704-76.032-76.65152-103.3408-15.61216-12.0832-32.6976-21.20448-51.31776-27.264-21.76-7.07968-44.12928-8.31616-66.85312-5.41184-16.7552 2.14144-32.81152 6.55744-48.09472 13.54112-27.71584 12.66304-51.44704 30.6368-71.73632 53.4912-16.86144 18.99136-31.87328 39.01824-41.05472 62.88768-4.81408 12.51328-10.16064 25.04448-8.70016 38.91328 0.30208 2.87104 1.74848 6.78016 3.90272 7.96416 2.07104 1.13792 6.01344-0.06016 8.63616-1.29024 2.76736-1.29664 5.21088-3.60064 7.33952-5.88928 15.00032-16.1216 29.26592-32.992 45.0688-48.27776 7.76576-7.51232 18.05824-12.608 27.69664-17.90976 5.1712-2.84416 9.15584-0.34304 10.92736 5.42208 0.78592 2.5536 1.1072 5.31968 1.2032 8.0064 0.91648 25.6448 1.15968 51.33056 2.80192 76.92672 1.03168 16.07424 3.21536 32.20352 6.4832 47.97568 6.85568 33.08288 16.8832 65.248 33.8368 94.72128 4.5568 7.92192 11.24096 14.62144 16.94848 21.8816 1.70624 0 3.41376 0 5.12 0 7.0272-3.8592 9.65376-9.344 6.36416-17.06752-0.23296-0.54912-0.07168-1.26592-0.08832-1.90592-0.4288-16.77056-1.09312-33.53856-1.14688-50.3104-0.01664-5.34656 0.97792-10.8864 2.5664-16.01024 3.88224-12.51584 14.72-17.5616 27.52128-13.61664 14.29888 4.40448 25.45536 13.66144 36.064 23.56096 18.47296 17.24032 36.35328 35.12064 55.0336 52.12928 9.85216 8.97024 21.97376 14.56256 34.9504 17.8048 7.57504 1.89312 11.58272-2.97728 8.98176-10.53184-0.59136-1.71648-1.4336-3.4304-2.51264-4.8832-11.36256-15.3216-23.33696-30.21952-34.0992-45.94816-21.85216-31.93856-41.95328-64.96384-45.89696-104.63488-2.25664-22.69696-2.5984-45.6192 7.73248-66.9952C458.8352 501.10592 471.59936 497.60128 488.19072 509.40032z" p-id="22710" fill="#e70984"></path><path d="M788.30592 598.496c17.96864-14.26816 38.83648-25.15328 51.36-45.536 0-3.41376 0-6.82624 0-10.24-6.19008-6.80448-12.84224-4.43008-19.85664-1.36576-17.62816 7.70048-35.2704 15.39584-53.1072 22.592-37.8112 15.2512-77.28128 21.01632-117.90336 19.90016-9.37856-0.25728-18.77504 0.1344-28.15488-0.09472-7.17824-0.17536-14.3424-0.90624-21.51808-1.30688-15.19744-0.8512-30.39232-1.84576-45.60256-2.33984-4.22016-0.13696-7.65568 2.81728-6.63168 7.31904 0.82432 3.61344 2.79424 7.74784 5.59104 9.9712 6.19008 4.92032 12.78336 9.80992 19.99616 12.85888 14.79424 6.25408 29.96096 11.7184 45.23392 16.71168 17.50528 5.72288 22.03776 13.61792 22.2464 31.0976 0.19584 16.51968 0.63488 32.91392 3.93856 49.17376 2.8544 14.05312 6.49344 27.7248 15.5328 39.25632 3.27296 4.17664 7.60832 7.05152 13.12128 5.62304 5.73312-1.48608 5.72544-6.41408 5.78304-11.2768 0.0448-3.75552 0.5632-7.54176 1.25056-11.24352 4.50304-24.29312 25.56416-34.77376 48.0128-24.82944 17.09824 7.57504 24.76672 22.4768 31.51104 38.28736 1.65632 3.88096 3.02464 7.08224 8.30592 7.0464 5.29792-0.03584 6.90944-3.16288 8.1216-7.21152 4.81664-16.1024 2.31296-32.13312-0.85376-48.05248-2.85056-14.3296-6.49088-28.50048-9.39648-42.81856C760.61056 628.9664 771.29728 612.00128 788.30592 598.496z" p-id="22711" fill="#e70984"></path><path d="M359.5008 355.89248c14.90304 14.14528 32.86656 21.24544 53.8432 20.40448 12.91648-0.51584 24.4032-5.24672 32.3584-14.46528 15.42656-17.8752 22.912-39.02976 20.1408-63.20256-4.33024-37.76896-44.73984-61.19168-80.7488-50.27584-27.08992 8.21248-45.73312 35.77984-44.50944 61.84576C339.78496 328.36992 346.64576 343.69024 359.5008 355.89248z" p-id="22712" fill="#e70984"></path><path d="M683.92064 567.99488c30.25152 2.83904 54.8288-18.13248 54.49856-49.54496 1.82272-30.82112-31.03744-60.55168-65.56416-48.4992-15.87968 5.54368-28.16256 15.91808-35.33568 31.22304-8.44416 18.0096-7.4816 34.69056 7.96288 50.17984C656.19072 562.09792 669.6192 566.65216 683.92064 567.99488z" p-id="22713" fill="#e70984"></path></svg>